<?xml version="1.0" encoding="UTF-8"?>
<!-- This file is generated by npm run build:icons -->
<svg xmlns="http://www.w3.org/2000/svg" xmlns:xlink="http://www.w3.org/1999/xlink" width="0" height="0">
<defs>
<symbol viewBox="0 0 15 15" fill="none" id="cross-2">
  <path     fill-rule="evenodd"
    clip-rule="evenodd"
    d="M11.7816 4.03157C12.0062 3.80702 12.0062 3.44295 11.7816 3.2184C11.5571 2.99385 11.193 2.99385 10.9685 3.2184L7.50005 6.68682L4.03164 3.2184C3.80708 2.99385 3.44301 2.99385 3.21846 3.2184C2.99391 3.44295 2.99391 3.80702 3.21846 4.03157L6.68688 7.49999L3.21846 10.9684C2.99391 11.193 2.99391 11.557 3.21846 11.7816C3.44301 12.0061 3.80708 12.0061 4.03164 11.7816L7.50005 8.31316L10.9685 11.7816C11.193 12.0061 11.5571 12.0061 11.7816 11.7816C12.0062 11.557 12.0062 11.193 11.7816 10.9684L8.31322 7.49999L11.7816 4.03157Z"
    fill="currentColor"
  ></path>
</symbol>
<symbol viewBox="0 0 15 15" fill="none" id="font-bold">
  <path     d="M5.10505 12C4.70805 12 4.4236 11.912 4.25171 11.736C4.0839 11.5559 4 11.2715 4 10.8827V4.11733C4 3.72033 4.08595 3.43588 4.25784 3.26398C4.43383 3.08799 4.71623 3 5.10505 3C6.42741 3 8.25591 3 9.02852 3C10.1373 3 11.0539 3.98153 11.0539 5.1846C11.0539 6.08501 10.6037 6.81855 9.70327 7.23602C10.8657 7.44851 11.5176 8.62787 11.5176 9.48128C11.5176 10.5125 10.9902 12 9.27734 12C8.77742 12 6.42626 12 5.10505 12ZM8.37891 8.00341H5.8V10.631H8.37891C8.9 10.631 9.6296 10.1211 9.6296 9.29877C9.6296 8.47643 8.9 8.00341 8.37891 8.00341ZM5.8 4.36903V6.69577H8.17969C8.53906 6.69577 9.27734 6.35939 9.27734 5.50002C9.27734 4.64064 8.48047 4.36903 8.17969 4.36903H5.8Z"
    fill="currentColor"
  ></path>
</symbol>
<symbol viewBox="0 0 15 15" fill="none" id="font-italic">
  <path     fill-rule="evenodd"
    clip-rule="evenodd"
    d="M5.67494 3.50017C5.67494 3.25164 5.87641 3.05017 6.12494 3.05017H10.6249C10.8735 3.05017 11.0749 3.25164 11.0749 3.50017C11.0749 3.7487 10.8735 3.95017 10.6249 3.95017H9.00587L7.2309 11.05H8.87493C9.12345 11.05 9.32493 11.2515 9.32493 11.5C9.32493 11.7486 9.12345 11.95 8.87493 11.95H4.37493C4.1264 11.95 3.92493 11.7486 3.92493 11.5C3.92493 11.2515 4.1264 11.05 4.37493 11.05H5.99397L7.76894 3.95017H6.12494C5.87641 3.95017 5.67494 3.7487 5.67494 3.50017Z"
    fill="currentColor"
  ></path>
</symbol>
<symbol viewBox="0 0 15 15" fill="none" id="heading">
  <path     fill-rule="evenodd"
    clip-rule="evenodd"
    d="M8.75432 2.0502C8.50579 2.0502 8.30432 2.25167 8.30432 2.5002C8.30432 2.74873 8.50579 2.9502 8.75432 2.9502H9.94997V7.05004H5.04997V2.9502H6.25432C6.50285 2.9502 6.70432 2.74873 6.70432 2.5002C6.70432 2.25167 6.50285 2.0502 6.25432 2.0502H2.75432C2.50579 2.0502 2.30432 2.25167 2.30432 2.5002C2.30432 2.74873 2.50579 2.9502 2.75432 2.9502H3.94997V12.0502H2.75432C2.50579 12.0502 2.30432 12.2517 2.30432 12.5002C2.30432 12.7487 2.50579 12.9502 2.75432 12.9502H6.25432C6.50285 12.9502 6.70432 12.7487 6.70432 12.5002C6.70432 12.2517 6.50285 12.0502 6.25432 12.0502H5.04997V7.95004H9.94997V12.0502H8.75432C8.50579 12.0502 8.30432 12.2517 8.30432 12.5002C8.30432 12.7487 8.50579 12.9502 8.75432 12.9502H12.2543C12.5028 12.9502 12.7043 12.7487 12.7043 12.5002C12.7043 12.2517 12.5028 12.0502 12.2543 12.0502H11.05V2.9502H12.2543C12.5028 2.9502 12.7043 2.74873 12.7043 2.5002C12.7043 2.25167 12.5028 2.0502 12.2543 2.0502H8.75432Z"
    fill="currentColor"
  ></path>
</symbol>
<symbol viewBox="0 0 15 15" fill="none" id="list-bullet">
  <path     fill-rule="evenodd"
    clip-rule="evenodd"
    d="M1.5 5.25C1.91421 5.25 2.25 4.91421 2.25 4.5C2.25 4.08579 1.91421 3.75 1.5 3.75C1.08579 3.75 0.75 4.08579 0.75 4.5C0.75 4.91421 1.08579 5.25 1.5 5.25ZM4 4.5C4 4.22386 4.22386 4 4.5 4H13.5C13.7761 4 14 4.22386 14 4.5C14 4.77614 13.7761 5 13.5 5H4.5C4.22386 5 4 4.77614 4 4.5ZM4.5 7C4.22386 7 4 7.22386 4 7.5C4 7.77614 4.22386 8 4.5 8H13.5C13.7761 8 14 7.77614 14 7.5C14 7.22386 13.7761 7 13.5 7H4.5ZM4.5 10C4.22386 10 4 10.2239 4 10.5C4 10.7761 4.22386 11 4.5 11H13.5C13.7761 11 14 10.7761 14 10.5C14 10.2239 13.7761 10 13.5 10H4.5ZM2.25 7.5C2.25 7.91421 1.91421 8.25 1.5 8.25C1.08579 8.25 0.75 7.91421 0.75 7.5C0.75 7.08579 1.08579 6.75 1.5 6.75C1.91421 6.75 2.25 7.08579 2.25 7.5ZM1.5 11.25C1.91421 11.25 2.25 10.9142 2.25 10.5C2.25 10.0858 1.91421 9.75 1.5 9.75C1.08579 9.75 0.75 10.0858 0.75 10.5C0.75 10.9142 1.08579 11.25 1.5 11.25Z"
    fill="currentColor"
  ></path>
</symbol>
<symbol viewBox="0 0 15 15" fill="none" id="magnifying-glass">
  <path     fill-rule="evenodd"
    clip-rule="evenodd"
    d="M10 6.5C10 8.433 8.433 10 6.5 10C4.567 10 3 8.433 3 6.5C3 4.567 4.567 3 6.5 3C8.433 3 10 4.567 10 6.5ZM9.30884 10.0159C8.53901 10.6318 7.56251 11 6.5 11C4.01472 11 2 8.98528 2 6.5C2 4.01472 4.01472 2 6.5 2C8.98528 2 11 4.01472 11 6.5C11 7.56251 10.6318 8.53901 10.0159 9.30884L12.8536 12.1464C13.0488 12.3417 13.0488 12.6583 12.8536 12.8536C12.6583 13.0488 12.3417 13.0488 12.1464 12.8536L9.30884 10.0159Z"
    fill="currentColor"
  ></path>
</symbol>
<symbol viewBox="0 0 15 15" fill="none" id="paper-plane">
  <path     fill-rule="evenodd"
    clip-rule="evenodd"
    d="M1.20308 1.04312C1.00481 0.954998 0.772341 1.0048 0.627577 1.16641C0.482813 1.32802 0.458794 1.56455 0.568117 1.75196L3.92115 7.50002L0.568117 13.2481C0.458794 13.4355 0.482813 13.672 0.627577 13.8336C0.772341 13.9952 1.00481 14.045 1.20308 13.9569L14.7031 7.95693C14.8836 7.87668 15 7.69762 15 7.50002C15 7.30243 14.8836 7.12337 14.7031 7.04312L1.20308 1.04312ZM4.84553 7.10002L2.21234 2.586L13.2689 7.50002L2.21234 12.414L4.84552 7.90002H9C9.22092 7.90002 9.4 7.72094 9.4 7.50002C9.4 7.27911 9.22092 7.10002 9 7.10002H4.84553Z"
    fill="currentColor"
  ></path>
</symbol>
<symbol viewBox="0 0 15 15" fill="none" id="quote">
  <path     fill-rule="evenodd"
    clip-rule="evenodd"
    d="M9.42503 3.44136C10.0561 3.23654 10.7837 3.2402 11.3792 3.54623C12.7532 4.25224 13.3477 6.07191 12.7946 8C12.5465 8.8649 12.1102 9.70472 11.1861 10.5524C10.262 11.4 8.98034 11.9 8.38571 11.9C8.17269 11.9 8 11.7321 8 11.525C8 11.3179 8.17644 11.15 8.38571 11.15C9.06497 11.15 9.67189 10.7804 10.3906 10.236C10.9406 9.8193 11.3701 9.28633 11.608 8.82191C12.0628 7.93367 12.0782 6.68174 11.3433 6.34901C10.9904 6.73455 10.5295 6.95946 9.97725 6.95946C8.7773 6.95946 8.0701 5.99412 8.10051 5.12009C8.12957 4.28474 8.66032 3.68954 9.42503 3.44136ZM3.42503 3.44136C4.05614 3.23654 4.78366 3.2402 5.37923 3.54623C6.7532 4.25224 7.34766 6.07191 6.79462 8C6.54654 8.8649 6.11019 9.70472 5.1861 10.5524C4.26201 11.4 2.98034 11.9 2.38571 11.9C2.17269 11.9 2 11.7321 2 11.525C2 11.3179 2.17644 11.15 2.38571 11.15C3.06497 11.15 3.67189 10.7804 4.39058 10.236C4.94065 9.8193 5.37014 9.28633 5.60797 8.82191C6.06282 7.93367 6.07821 6.68174 5.3433 6.34901C4.99037 6.73455 4.52948 6.95946 3.97725 6.95946C2.7773 6.95946 2.0701 5.99412 2.10051 5.12009C2.12957 4.28474 2.66032 3.68954 3.42503 3.44136Z"
    fill="currentColor"
  ></path>
</symbol>
<symbol viewBox="0 0 15 15" fill="none" id="strikethrough">
  <path     fill-rule="evenodd"
    clip-rule="evenodd"
    d="M5.00003 3.25C5.00003 2.97386 4.77617 2.75 4.50003 2.75C4.22389 2.75 4.00003 2.97386 4.00003 3.25V7.10003H2.49998C2.27906 7.10003 2.09998 7.27912 2.09998 7.50003C2.09998 7.72094 2.27906 7.90003 2.49998 7.90003H4.00003V8.55C4.00003 10.483 5.56703 12.05 7.50003 12.05C9.43303 12.05 11 10.483 11 8.55V7.90003H12.5C12.7209 7.90003 12.9 7.72094 12.9 7.50003C12.9 7.27912 12.7209 7.10003 12.5 7.10003H11V3.25C11 2.97386 10.7762 2.75 10.5 2.75C10.2239 2.75 10 2.97386 10 3.25V7.10003H5.00003V3.25ZM5.00003 7.90003V8.55C5.00003 9.93071 6.11932 11.05 7.50003 11.05C8.88074 11.05 10 9.93071 10 8.55V7.90003H5.00003Z"
    fill="currentColor"
  ></path>
</symbol>
<symbol viewBox="0 0 15 15" fill="none" id="underline">
  <path     fill-rule="evenodd"
    clip-rule="evenodd"
    d="M5.00001 2.75C5.00001 2.47386 4.77615 2.25 4.50001 2.25C4.22387 2.25 4.00001 2.47386 4.00001 2.75V8.05C4.00001 9.983 5.56702 11.55 7.50001 11.55C9.43301 11.55 11 9.983 11 8.05V2.75C11 2.47386 10.7762 2.25 10.5 2.25C10.2239 2.25 10 2.47386 10 2.75V8.05C10 9.43071 8.88072 10.55 7.50001 10.55C6.1193 10.55 5.00001 9.43071 5.00001 8.05V2.75ZM3.49998 13.1001C3.27906 13.1001 3.09998 13.2791 3.09998 13.5001C3.09998 13.721 3.27906 13.9001 3.49998 13.9001H11.5C11.7209 13.9001 11.9 13.721 11.9 13.5001C11.9 13.2791 11.7209 13.1001 11.5 13.1001H3.49998Z"
    fill="currentColor"
  ></path>
</symbol>
</defs>
</svg>
