<?xml version="1.0" encoding="UTF-8"?>
<!-- This file is generated by npm run build:icons -->
<svg xmlns="http://www.w3.org/2000/svg" xmlns:xlink="http://www.w3.org/1999/xlink" width="0" height="0">
<defs>
<symbol viewBox="0 0 15 15" fill="none" id="arrow-left">
  <path     fill-rule="evenodd"
    clip-rule="evenodd"
    d="M6.85355 3.14645C7.04882 3.34171 7.04882 3.65829 6.85355 3.85355L3.70711 7H12.5C12.7761 7 13 7.22386 13 7.5C13 7.77614 12.7761 8 12.5 8H3.70711L6.85355 11.1464C7.04882 11.3417 7.04882 11.6583 6.85355 11.8536C6.65829 12.0488 6.34171 12.0488 6.14645 11.8536L2.14645 7.85355C1.95118 7.65829 1.95118 7.34171 2.14645 7.14645L6.14645 3.14645C6.34171 2.95118 6.65829 2.95118 6.85355 3.14645Z"
    fill="currentColor"
  ></path>
</symbol>
<symbol viewBox="0 0 15 15" fill="none" id="bar-chart">
  <path     fill-rule="evenodd"
    clip-rule="evenodd"
    d="M11.5 1C11.7761 1 12 1.22386 12 1.5V13.5C12 13.7761 11.7761 14 11.5 14C11.2239 14 11 13.7761 11 13.5V1.5C11 1.22386 11.2239 1 11.5 1ZM9.5 3C9.77614 3 10 3.22386 10 3.5V13.5C10 13.7761 9.77614 14 9.5 14C9.22386 14 9 13.7761 9 13.5V3.5C9 3.22386 9.22386 3 9.5 3ZM13.5 3C13.7761 3 14 3.22386 14 3.5V13.5C14 13.7761 13.7761 14 13.5 14C13.2239 14 13 13.7761 13 13.5V3.5C13 3.22386 13.2239 3 13.5 3ZM5.5 4C5.77614 4 6 4.22386 6 4.5V13.5C6 13.7761 5.77614 14 5.5 14C5.22386 14 5 13.7761 5 13.5V4.5C5 4.22386 5.22386 4 5.5 4ZM1.5 5C1.77614 5 2 5.22386 2 5.5V13.5C2 13.7761 1.77614 14 1.5 14C1.22386 14 1 13.7761 1 13.5V5.5C1 5.22386 1.22386 5 1.5 5ZM7.5 5C7.77614 5 8 5.22386 8 5.5V13.5C8 13.7761 7.77614 14 7.5 14C7.22386 14 7 13.7761 7 13.5V5.5C7 5.22386 7.22386 5 7.5 5ZM3.5 7C3.77614 7 4 7.22386 4 7.5V13.5C4 13.7761 3.77614 14 3.5 14C3.22386 14 3 13.7761 3 13.5V7.5C3 7.22386 3.22386 7 3.5 7Z"
    fill="currentColor"
  ></path>
</symbol>
<symbol viewBox="0 0 15 15" fill="none" id="bell">
  <path     fill-rule="evenodd"
    clip-rule="evenodd"
    d="M8.60124 1.25086C8.60124 1.75459 8.26278 2.17927 7.80087 2.30989C10.1459 2.4647 12 4.41582 12 6.79999V10.25C12 11.0563 12.0329 11.7074 12.7236 12.0528C12.931 12.1565 13.0399 12.3892 12.9866 12.6149C12.9333 12.8406 12.7319 13 12.5 13H8.16144C8.36904 13.1832 8.49997 13.4513 8.49997 13.75C8.49997 14.3023 8.05226 14.75 7.49997 14.75C6.94769 14.75 6.49997 14.3023 6.49997 13.75C6.49997 13.4513 6.63091 13.1832 6.83851 13H2.49999C2.2681 13 2.06664 12.8406 2.01336 12.6149C1.96009 12.3892 2.06897 12.1565 2.27638 12.0528C2.96708 11.7074 2.99999 11.0563 2.99999 10.25V6.79999C2.99999 4.41537 4.85481 2.46396 7.20042 2.3098C6.73867 2.17908 6.40036 1.75448 6.40036 1.25086C6.40036 0.643104 6.89304 0.150421 7.5008 0.150421C8.10855 0.150421 8.60124 0.643104 8.60124 1.25086ZM7.49999 3.29999C5.56699 3.29999 3.99999 4.86699 3.99999 6.79999V10.25L4.00002 10.3009C4.0005 10.7463 4.00121 11.4084 3.69929 12H11.3007C10.9988 11.4084 10.9995 10.7463 11 10.3009L11 10.25V6.79999C11 4.86699 9.43299 3.29999 7.49999 3.29999Z"
    fill="currentColor"
  ></path>
</symbol>
<symbol viewBox="0 0 15 15" fill="none" id="caret-down">
  <path     fill-rule="evenodd"
    clip-rule="evenodd"
    d="M4.18179 6.18181C4.35753 6.00608 4.64245 6.00608 4.81819 6.18181L7.49999 8.86362L10.1818 6.18181C10.3575 6.00608 10.6424 6.00608 10.8182 6.18181C10.9939 6.35755 10.9939 6.64247 10.8182 6.81821L7.81819 9.81821C7.73379 9.9026 7.61934 9.95001 7.49999 9.95001C7.38064 9.95001 7.26618 9.9026 7.18179 9.81821L4.18179 6.81821C4.00605 6.64247 4.00605 6.35755 4.18179 6.18181Z"
    fill="currentColor"
  ></path>
</symbol>
<symbol viewBox="0 0 15 15" fill="none" id="caret-sort">
  <path     fill-rule="evenodd"
    clip-rule="evenodd"
    d="M4.93179 5.43179C4.75605 5.60753 4.75605 5.89245 4.93179 6.06819C5.10753 6.24392 5.39245 6.24392 5.56819 6.06819L7.49999 4.13638L9.43179 6.06819C9.60753 6.24392 9.89245 6.24392 10.0682 6.06819C10.2439 5.89245 10.2439 5.60753 10.0682 5.43179L7.81819 3.18179C7.73379 3.0974 7.61933 3.04999 7.49999 3.04999C7.38064 3.04999 7.26618 3.0974 7.18179 3.18179L4.93179 5.43179ZM10.0682 9.56819C10.2439 9.39245 10.2439 9.10753 10.0682 8.93179C9.89245 8.75606 9.60753 8.75606 9.43179 8.93179L7.49999 10.8636L5.56819 8.93179C5.39245 8.75606 5.10753 8.75606 4.93179 8.93179C4.75605 9.10753 4.75605 9.39245 4.93179 9.56819L7.18179 11.8182C7.35753 11.9939 7.64245 11.9939 7.81819 11.8182L10.0682 9.56819Z"
    fill="currentColor"
  ></path>
</symbol>
<symbol viewBox="0 0 15 15" fill="none" id="caret-up">
  <path     fill-rule="evenodd"
    clip-rule="evenodd"
    d="M4.18179 8.81819C4.00605 8.64245 4.00605 8.35753 4.18179 8.18179L7.18179 5.18179C7.26618 5.0974 7.38064 5.04999 7.49999 5.04999C7.61933 5.04999 7.73379 5.0974 7.81819 5.18179L10.8182 8.18179C10.9939 8.35753 10.9939 8.64245 10.8182 8.81819C10.6424 8.99392 10.3575 8.99392 10.1818 8.81819L7.49999 6.13638L4.81819 8.81819C4.64245 8.99392 4.35753 8.99392 4.18179 8.81819Z"
    fill="currentColor"
  ></path>
</symbol>
<symbol viewBox="0 0 15 15" fill="none" id="chat-bubble">
  <path     fill-rule="evenodd"
    clip-rule="evenodd"
    d="M12.5 3L2.5 3.00002C1.67157 3.00002 1 3.6716 1 4.50002V9.50003C1 10.3285 1.67157 11 2.5 11H7.50003C7.63264 11 7.75982 11.0527 7.85358 11.1465L10 13.2929V11.5C10 11.2239 10.2239 11 10.5 11H12.5C13.3284 11 14 10.3285 14 9.50003V4.5C14 3.67157 13.3284 3 12.5 3ZM2.49999 2.00002L12.5 2C13.8807 2 15 3.11929 15 4.5V9.50003C15 10.8807 13.8807 12 12.5 12H11V14.5C11 14.7022 10.8782 14.8845 10.6913 14.9619C10.5045 15.0393 10.2894 14.9965 10.1464 14.8536L7.29292 12H2.5C1.11929 12 0 10.8807 0 9.50003V4.50002C0 3.11931 1.11928 2.00003 2.49999 2.00002Z"
    fill="currentColor"
  ></path>
</symbol>
<symbol viewBox="0 0 15 15" fill="none" id="check">
  <path     fill-rule="evenodd"
    clip-rule="evenodd"
    d="M11.4669 3.72684C11.7558 3.91574 11.8369 4.30308 11.648 4.59198L7.39799 11.092C7.29783 11.2452 7.13556 11.3467 6.95402 11.3699C6.77247 11.3931 6.58989 11.3355 6.45446 11.2124L3.70446 8.71241C3.44905 8.48022 3.43023 8.08494 3.66242 7.82953C3.89461 7.57412 4.28989 7.55529 4.5453 7.78749L6.75292 9.79441L10.6018 3.90792C10.7907 3.61902 11.178 3.53795 11.4669 3.72684Z"
    fill="currentColor"
  ></path>
</symbol>
<symbol viewBox="0 0 15 15" fill="none" id="chevron-down">
  <path     fill-rule="evenodd"
    clip-rule="evenodd"
    d="M3.13523 6.15803C3.3241 5.95657 3.64052 5.94637 3.84197 6.13523L7.5 9.56464L11.158 6.13523C11.3595 5.94637 11.6759 5.95657 11.8648 6.15803C12.0536 6.35949 12.0434 6.67591 11.842 6.86477L7.84197 10.6148C7.64964 10.7951 7.35036 10.7951 7.15803 10.6148L3.15803 6.86477C2.95657 6.67591 2.94637 6.35949 3.13523 6.15803Z"
    fill="currentColor"
  ></path>
</symbol>
<symbol viewBox="0 0 15 15" fill="none" id="chevron-left">
  <path     fill-rule="evenodd"
    clip-rule="evenodd"
    d="M8.84182 3.13514C9.04327 3.32401 9.05348 3.64042 8.86462 3.84188L5.43521 7.49991L8.86462 11.1579C9.05348 11.3594 9.04327 11.6758 8.84182 11.8647C8.64036 12.0535 8.32394 12.0433 8.13508 11.8419L4.38508 7.84188C4.20477 7.64955 4.20477 7.35027 4.38508 7.15794L8.13508 3.15794C8.32394 2.95648 8.64036 2.94628 8.84182 3.13514Z"
    fill="currentColor"
  ></path>
</symbol>
<symbol viewBox="0 0 15 15" fill="none" id="chevron-right">
  <path     fill-rule="evenodd"
    clip-rule="evenodd"
    d="M6.1584 3.13508C6.35985 2.94621 6.67627 2.95642 6.86514 3.15788L10.6151 7.15788C10.7954 7.3502 10.7954 7.64949 10.6151 7.84182L6.86514 11.8418C6.67627 12.0433 6.35985 12.0535 6.1584 11.8646C5.95694 11.6757 5.94673 11.3593 6.1356 11.1579L9.565 7.49985L6.1356 3.84182C5.94673 3.64036 5.95694 3.32394 6.1584 3.13508Z"
    fill="currentColor"
  ></path>
</symbol>
<symbol viewBox="0 0 15 15" fill="none" id="chevron-up">
  <path     fill-rule="evenodd"
    clip-rule="evenodd"
    d="M3.13523 8.84197C3.3241 9.04343 3.64052 9.05363 3.84197 8.86477L7.5 5.43536L11.158 8.86477C11.3595 9.05363 11.6759 9.04343 11.8648 8.84197C12.0536 8.64051 12.0434 8.32409 11.842 8.13523L7.84197 4.38523C7.64964 4.20492 7.35036 4.20492 7.15803 4.38523L3.15803 8.13523C2.95657 8.32409 2.94637 8.64051 3.13523 8.84197Z"
    fill="currentColor"
  ></path>
</symbol>
<symbol viewBox="0 0 15 15" fill="none" id="circle">
  <path     fill-rule="evenodd"
    clip-rule="evenodd"
    d="M0.877075 7.49991C0.877075 3.84222 3.84222 0.877075 7.49991 0.877075C11.1576 0.877075 14.1227 3.84222 14.1227 7.49991C14.1227 11.1576 11.1576 14.1227 7.49991 14.1227C3.84222 14.1227 0.877075 11.1576 0.877075 7.49991ZM7.49991 1.82708C4.36689 1.82708 1.82708 4.36689 1.82708 7.49991C1.82708 10.6329 4.36689 13.1727 7.49991 13.1727C10.6329 13.1727 13.1727 10.6329 13.1727 7.49991C13.1727 4.36689 10.6329 1.82708 7.49991 1.82708Z"
    fill="currentColor"
  ></path>
</symbol>
<symbol viewBox="0 0 15 15" fill="none" id="clipboard">
  <path     fill-rule="evenodd"
    clip-rule="evenodd"
    d="M5 2V1H10V2H5ZM4.75 0C4.33579 0 4 0.335786 4 0.75V1H3.5C2.67157 1 2 1.67157 2 2.5V12.5C2 13.3284 2.67157 14 3.5 14H11.5C12.3284 14 13 13.3284 13 12.5V2.5C13 1.67157 12.3284 1 11.5 1H11V0.75C11 0.335786 10.6642 0 10.25 0H4.75ZM11 2V2.25C11 2.66421 10.6642 3 10.25 3H4.75C4.33579 3 4 2.66421 4 2.25V2H3.5C3.22386 2 3 2.22386 3 2.5V12.5C3 12.7761 3.22386 13 3.5 13H11.5C11.7761 13 12 12.7761 12 12.5V2.5C12 2.22386 11.7761 2 11.5 2H11Z"
    fill="currentColor"
  ></path>
</symbol>
<symbol viewBox="0 0 15 15" fill="none" id="counter-clockwise-clock">
  <path     fill-rule="evenodd"
    clip-rule="evenodd"
    d="M13.15 7.49998C13.15 4.66458 10.9402 1.84998 7.50002 1.84998C4.72167 1.84998 3.34849 3.9064 2.76335 5H4.5C4.77614 5 5 5.22386 5 5.5C5 5.77614 4.77614 6 4.5 6H1.5C1.22386 6 1 5.77614 1 5.5V2.5C1 2.22386 1.22386 2 1.5 2C1.77614 2 2 2.22386 2 2.5V4.31318C2.70453 3.07126 4.33406 0.849976 7.50002 0.849976C11.5628 0.849976 14.15 4.18537 14.15 7.49998C14.15 10.8146 11.5628 14.15 7.50002 14.15C5.55618 14.15 3.93778 13.3808 2.78548 12.2084C2.16852 11.5806 1.68668 10.839 1.35816 10.0407C1.25306 9.78536 1.37488 9.49315 1.63024 9.38806C1.8856 9.28296 2.17781 9.40478 2.2829 9.66014C2.56374 10.3425 2.97495 10.9745 3.4987 11.5074C4.47052 12.4963 5.83496 13.15 7.50002 13.15C10.9402 13.15 13.15 10.3354 13.15 7.49998ZM7.5 4.00001C7.77614 4.00001 8 4.22387 8 4.50001V7.29291L9.85355 9.14646C10.0488 9.34172 10.0488 9.65831 9.85355 9.85357C9.65829 10.0488 9.34171 10.0488 9.14645 9.85357L7.14645 7.85357C7.05268 7.7598 7 7.63262 7 7.50001V4.50001C7 4.22387 7.22386 4.00001 7.5 4.00001Z"
    fill="currentColor"
  ></path>
</symbol>
<symbol viewBox="0 0 15 15" fill="none" id="cross-2">
  <path     fill-rule="evenodd"
    clip-rule="evenodd"
    d="M11.7816 4.03157C12.0062 3.80702 12.0062 3.44295 11.7816 3.2184C11.5571 2.99385 11.193 2.99385 10.9685 3.2184L7.50005 6.68682L4.03164 3.2184C3.80708 2.99385 3.44301 2.99385 3.21846 3.2184C2.99391 3.44295 2.99391 3.80702 3.21846 4.03157L6.68688 7.49999L3.21846 10.9684C2.99391 11.193 2.99391 11.557 3.21846 11.7816C3.44301 12.0061 3.80708 12.0061 4.03164 11.7816L7.50005 8.31316L10.9685 11.7816C11.193 12.0061 11.5571 12.0061 11.7816 11.7816C12.0062 11.557 12.0062 11.193 11.7816 10.9684L8.31322 7.49999L11.7816 4.03157Z"
    fill="currentColor"
  ></path>
</symbol>
<symbol viewBox="0 0 15 15" fill="none" id="desktop">
  <path     fill-rule="evenodd"
    clip-rule="evenodd"
    d="M1 3.25C1 3.11193 1.11193 3 1.25 3H13.75C13.8881 3 14 3.11193 14 3.25V10.75C14 10.8881 13.8881 11 13.75 11H1.25C1.11193 11 1 10.8881 1 10.75V3.25ZM1.25 2C0.559643 2 0 2.55964 0 3.25V10.75C0 11.4404 0.559644 12 1.25 12H5.07341L4.82991 13.2986C4.76645 13.6371 5.02612 13.95 5.37049 13.95H9.62951C9.97389 13.95 10.2336 13.6371 10.1701 13.2986L9.92659 12H13.75C14.4404 12 15 11.4404 15 10.75V3.25C15 2.55964 14.4404 2 13.75 2H1.25ZM9.01091 12H5.98909L5.79222 13.05H9.20778L9.01091 12Z"
    fill="currentColor"
  ></path>
</symbol>
<symbol viewBox="0 0 15 15" fill="none" id="dots-vertical">
  <path     fill-rule="evenodd"
    clip-rule="evenodd"
    d="M8.625 2.5C8.625 3.12132 8.12132 3.625 7.5 3.625C6.87868 3.625 6.375 3.12132 6.375 2.5C6.375 1.87868 6.87868 1.375 7.5 1.375C8.12132 1.375 8.625 1.87868 8.625 2.5ZM8.625 7.5C8.625 8.12132 8.12132 8.625 7.5 8.625C6.87868 8.625 6.375 8.12132 6.375 7.5C6.375 6.87868 6.87868 6.375 7.5 6.375C8.12132 6.375 8.625 6.87868 8.625 7.5ZM7.5 13.625C8.12132 13.625 8.625 13.1213 8.625 12.5C8.625 11.8787 8.12132 11.375 7.5 11.375C6.87868 11.375 6.375 11.8787 6.375 12.5C6.375 13.1213 6.87868 13.625 7.5 13.625Z"
    fill="currentColor"
  ></path>
</symbol>
<symbol viewBox="0 0 15 15" fill="none" id="envelope-closed">
  <path     fill-rule="evenodd"
    clip-rule="evenodd"
    d="M1 2C0.447715 2 0 2.44772 0 3V12C0 12.5523 0.447715 13 1 13H14C14.5523 13 15 12.5523 15 12V3C15 2.44772 14.5523 2 14 2H1ZM1 3L14 3V3.92494C13.9174 3.92486 13.8338 3.94751 13.7589 3.99505L7.5 7.96703L1.24112 3.99505C1.16621 3.94751 1.0826 3.92486 1 3.92494V3ZM1 4.90797V12H14V4.90797L7.74112 8.87995C7.59394 8.97335 7.40606 8.97335 7.25888 8.87995L1 4.90797Z"
    fill="currentColor"
  ></path>
</symbol>
<symbol viewBox="0 0 15 15" fill="none" id="external-link">
  <path     fill-rule="evenodd"
    clip-rule="evenodd"
    d="M3 2C2.44772 2 2 2.44772 2 3V12C2 12.5523 2.44772 13 3 13H12C12.5523 13 13 12.5523 13 12V8.5C13 8.22386 12.7761 8 12.5 8C12.2239 8 12 8.22386 12 8.5V12H3V3L6.5 3C6.77614 3 7 2.77614 7 2.5C7 2.22386 6.77614 2 6.5 2H3ZM12.8536 2.14645C12.9015 2.19439 12.9377 2.24964 12.9621 2.30861C12.9861 2.36669 12.9996 2.4303 13 2.497L13 2.5V2.50049V5.5C13 5.77614 12.7761 6 12.5 6C12.2239 6 12 5.77614 12 5.5V3.70711L6.85355 8.85355C6.65829 9.04882 6.34171 9.04882 6.14645 8.85355C5.95118 8.65829 5.95118 8.34171 6.14645 8.14645L11.2929 3H9.5C9.22386 3 9 2.77614 9 2.5C9 2.22386 9.22386 2 9.5 2H12.4999H12.5C12.5678 2 12.6324 2.01349 12.6914 2.03794C12.7504 2.06234 12.8056 2.09851 12.8536 2.14645Z"
    fill="currentColor"
  ></path>
</symbol>
<symbol viewBox="0 0 15 15" fill="none" id="file-plus">
  <path     fill-rule="evenodd"
    clip-rule="evenodd"
    d="M3.5 2C3.22386 2 3 2.22386 3 2.5V12.5C3 12.7761 3.22386 13 3.5 13H11.5C11.7761 13 12 12.7761 12 12.5V4.70711L9.29289 2H3.5ZM2 2.5C2 1.67157 2.67157 1 3.5 1H9.5C9.63261 1 9.75979 1.05268 9.85355 1.14645L12.7803 4.07322C12.921 4.21388 13 4.40464 13 4.60355V12.5C13 13.3284 12.3284 14 11.5 14H3.5C2.67157 14 2 13.3284 2 12.5V2.5ZM4.75 7.5C4.75 7.22386 4.97386 7 5.25 7H7V5.25C7 4.97386 7.22386 4.75 7.5 4.75C7.77614 4.75 8 4.97386 8 5.25V7H9.75C10.0261 7 10.25 7.22386 10.25 7.5C10.25 7.77614 10.0261 8 9.75 8H8V9.75C8 10.0261 7.77614 10.25 7.5 10.25C7.22386 10.25 7 10.0261 7 9.75V8H5.25C4.97386 8 4.75 7.77614 4.75 7.5Z"
    fill="currentColor"
  ></path>
</symbol>
<symbol viewBox="0 0 15 15" fill="none" id="file-text">
  <path     fill-rule="evenodd"
    clip-rule="evenodd"
    d="M3 2.5C3 2.22386 3.22386 2 3.5 2H9.08579C9.21839 2 9.34557 2.05268 9.43934 2.14645L11.8536 4.56066C11.9473 4.65443 12 4.78161 12 4.91421V12.5C12 12.7761 11.7761 13 11.5 13H3.5C3.22386 13 3 12.7761 3 12.5V2.5ZM3.5 1C2.67157 1 2 1.67157 2 2.5V12.5C2 13.3284 2.67157 14 3.5 14H11.5C12.3284 14 13 13.3284 13 12.5V4.91421C13 4.51639 12.842 4.13486 12.5607 3.85355L10.1464 1.43934C9.86514 1.15804 9.48361 1 9.08579 1H3.5ZM4.5 4C4.22386 4 4 4.22386 4 4.5C4 4.77614 4.22386 5 4.5 5H7.5C7.77614 5 8 4.77614 8 4.5C8 4.22386 7.77614 4 7.5 4H4.5ZM4.5 7C4.22386 7 4 7.22386 4 7.5C4 7.77614 4.22386 8 4.5 8H10.5C10.7761 8 11 7.77614 11 7.5C11 7.22386 10.7761 7 10.5 7H4.5ZM4.5 10C4.22386 10 4 10.2239 4 10.5C4 10.7761 4.22386 11 4.5 11H10.5C10.7761 11 11 10.7761 11 10.5C11 10.2239 10.7761 10 10.5 10H4.5Z"
    fill="currentColor"
  ></path>
</symbol>
<symbol viewBox="0 0 15 15" fill="none" id="font-bold">
  <path     d="M5.10505 12C4.70805 12 4.4236 11.912 4.25171 11.736C4.0839 11.5559 4 11.2715 4 10.8827V4.11733C4 3.72033 4.08595 3.43588 4.25784 3.26398C4.43383 3.08799 4.71623 3 5.10505 3C6.42741 3 8.25591 3 9.02852 3C10.1373 3 11.0539 3.98153 11.0539 5.1846C11.0539 6.08501 10.6037 6.81855 9.70327 7.23602C10.8657 7.44851 11.5176 8.62787 11.5176 9.48128C11.5176 10.5125 10.9902 12 9.27734 12C8.77742 12 6.42626 12 5.10505 12ZM8.37891 8.00341H5.8V10.631H8.37891C8.9 10.631 9.6296 10.1211 9.6296 9.29877C9.6296 8.47643 8.9 8.00341 8.37891 8.00341ZM5.8 4.36903V6.69577H8.17969C8.53906 6.69577 9.27734 6.35939 9.27734 5.50002C9.27734 4.64064 8.48047 4.36903 8.17969 4.36903H5.8Z"
    fill="currentColor"
  ></path>
</symbol>
<symbol viewBox="0 0 15 15" fill="none" id="font-italic">
  <path     fill-rule="evenodd"
    clip-rule="evenodd"
    d="M5.67494 3.50017C5.67494 3.25164 5.87641 3.05017 6.12494 3.05017H10.6249C10.8735 3.05017 11.0749 3.25164 11.0749 3.50017C11.0749 3.7487 10.8735 3.95017 10.6249 3.95017H9.00587L7.2309 11.05H8.87493C9.12345 11.05 9.32493 11.2515 9.32493 11.5C9.32493 11.7486 9.12345 11.95 8.87493 11.95H4.37493C4.1264 11.95 3.92493 11.7486 3.92493 11.5C3.92493 11.2515 4.1264 11.05 4.37493 11.05H5.99397L7.76894 3.95017H6.12494C5.87641 3.95017 5.67494 3.7487 5.67494 3.50017Z"
    fill="currentColor"
  ></path>
</symbol>
<symbol viewBox="0 0 15 15" fill="none" id="gear">
  <path     fill-rule="evenodd"
    clip-rule="evenodd"
    d="M7.07095 0.650238C6.67391 0.650238 6.32977 0.925096 6.24198 1.31231L6.0039 2.36247C5.6249 2.47269 5.26335 2.62363 4.92436 2.81013L4.01335 2.23585C3.67748 2.02413 3.23978 2.07312 2.95903 2.35386L2.35294 2.95996C2.0722 3.2407 2.0232 3.6784 2.23493 4.01427L2.80942 4.92561C2.62307 5.2645 2.47227 5.62594 2.36216 6.00481L1.31209 6.24287C0.924883 6.33065 0.650024 6.6748 0.650024 7.07183V7.92897C0.650024 8.32601 0.924883 8.67015 1.31209 8.75794L2.36228 8.99603C2.47246 9.375 2.62335 9.73652 2.80979 10.0755L2.2354 10.9867C2.02367 11.3225 2.07267 11.7602 2.35341 12.041L2.95951 12.6471C3.24025 12.9278 3.67795 12.9768 4.01382 12.7651L4.92506 12.1907C5.26384 12.377 5.62516 12.5278 6.0039 12.6379L6.24198 13.6881C6.32977 14.0753 6.67391 14.3502 7.07095 14.3502H7.92809C8.32512 14.3502 8.66927 14.0753 8.75705 13.6881L8.99505 12.6383C9.37411 12.5282 9.73573 12.3773 10.0748 12.1909L10.986 12.7653C11.3218 12.977 11.7595 12.928 12.0403 12.6473L12.6464 12.0412C12.9271 11.7604 12.9761 11.3227 12.7644 10.9869L12.1902 10.076C12.3768 9.73688 12.5278 9.37515 12.638 8.99596L13.6879 8.75794C14.0751 8.67015 14.35 8.32601 14.35 7.92897V7.07183C14.35 6.6748 14.0751 6.33065 13.6879 6.24287L12.6381 6.00488C12.528 5.62578 12.3771 5.26414 12.1906 4.92507L12.7648 4.01407C12.9766 3.6782 12.9276 3.2405 12.6468 2.95975L12.0407 2.35366C11.76 2.07292 11.3223 2.02392 10.9864 2.23565L10.0755 2.80989C9.73622 2.62328 9.37437 2.47229 8.99505 2.36209L8.75705 1.31231C8.66927 0.925096 8.32512 0.650238 7.92809 0.650238H7.07095ZM4.92053 3.81251C5.44724 3.44339 6.05665 3.18424 6.71543 3.06839L7.07095 1.50024H7.92809L8.28355 3.06816C8.94267 3.18387 9.5524 3.44302 10.0794 3.81224L11.4397 2.9547L12.0458 3.56079L11.1882 4.92117C11.5573 5.44798 11.8164 6.0575 11.9321 6.71638L13.5 7.07183V7.92897L11.932 8.28444C11.8162 8.94342 11.557 9.55301 11.1878 10.0798L12.0453 11.4402L11.4392 12.0462L10.0787 11.1886C9.55192 11.5576 8.94241 11.8166 8.28355 11.9323L7.92809 13.5002H7.07095L6.71543 11.932C6.0569 11.8162 5.44772 11.5572 4.92116 11.1883L3.56055 12.046L2.95445 11.4399L3.81213 10.0794C3.4431 9.55266 3.18403 8.94326 3.06825 8.2845L1.50002 7.92897V7.07183L3.06818 6.71632C3.18388 6.05765 3.44283 5.44833 3.81171 4.92165L2.95398 3.561L3.56008 2.95491L4.92053 3.81251ZM9.02496 7.50008C9.02496 8.34226 8.34223 9.02499 7.50005 9.02499C6.65786 9.02499 5.97513 8.34226 5.97513 7.50008C5.97513 6.65789 6.65786 5.97516 7.50005 5.97516C8.34223 5.97516 9.02496 6.65789 9.02496 7.50008ZM9.92496 7.50008C9.92496 8.83932 8.83929 9.92499 7.50005 9.92499C6.1608 9.92499 5.07513 8.83932 5.07513 7.50008C5.07513 6.16084 6.1608 5.07516 7.50005 5.07516C8.83929 5.07516 9.92496 6.16084 9.92496 7.50008Z"
    fill="currentColor"
  ></path>
</symbol>
<symbol viewBox="0 0 15 15" fill="none" id="globe">
  <path     fill-rule="evenodd"
    clip-rule="evenodd"
    d="M7.49996 1.80002C4.35194 1.80002 1.79996 4.352 1.79996 7.50002C1.79996 10.648 4.35194 13.2 7.49996 13.2C10.648 13.2 13.2 10.648 13.2 7.50002C13.2 4.352 10.648 1.80002 7.49996 1.80002ZM0.899963 7.50002C0.899963 3.85494 3.85488 0.900024 7.49996 0.900024C11.145 0.900024 14.1 3.85494 14.1 7.50002C14.1 11.1451 11.145 14.1 7.49996 14.1C3.85488 14.1 0.899963 11.1451 0.899963 7.50002Z"
    fill="currentColor"
  ></path>
  <path     fill-rule="evenodd"
    clip-rule="evenodd"
    d="M13.4999 7.89998H1.49994V7.09998H13.4999V7.89998Z"
    fill="currentColor"
  ></path>
  <path     fill-rule="evenodd"
    clip-rule="evenodd"
    d="M7.09991 13.5V1.5H7.89991V13.5H7.09991zM10.375 7.49998C10.375 5.32724 9.59364 3.17778 8.06183 1.75656L8.53793 1.24341C10.2396 2.82218 11.075 5.17273 11.075 7.49998 11.075 9.82724 10.2396 12.1778 8.53793 13.7566L8.06183 13.2434C9.59364 11.8222 10.375 9.67273 10.375 7.49998zM3.99969 7.5C3.99969 5.17611 4.80786 2.82678 6.45768 1.24719L6.94177 1.75281C5.4582 3.17323 4.69969 5.32389 4.69969 7.5 4.6997 9.67611 5.45822 11.8268 6.94179 13.2472L6.45769 13.7528C4.80788 12.1732 3.9997 9.8239 3.99969 7.5z"
    fill="currentColor"
  ></path>
  <path     fill-rule="evenodd"
    clip-rule="evenodd"
    d="M7.49996 3.95801C9.66928 3.95801 11.8753 4.35915 13.3706 5.19448 13.5394 5.28875 13.5998 5.50197 13.5055 5.67073 13.4113 5.83948 13.198 5.89987 13.0293 5.8056 11.6794 5.05155 9.60799 4.65801 7.49996 4.65801 5.39192 4.65801 3.32052 5.05155 1.97064 5.8056 1.80188 5.89987 1.58866 5.83948 1.49439 5.67073 1.40013 5.50197 1.46051 5.28875 1.62927 5.19448 3.12466 4.35915 5.33063 3.95801 7.49996 3.95801zM7.49996 10.85C9.66928 10.85 11.8753 10.4488 13.3706 9.6135 13.5394 9.51924 13.5998 9.30601 13.5055 9.13726 13.4113 8.9685 13.198 8.90812 13.0293 9.00238 11.6794 9.75643 9.60799 10.15 7.49996 10.15 5.39192 10.15 3.32052 9.75643 1.97064 9.00239 1.80188 8.90812 1.58866 8.9685 1.49439 9.13726 1.40013 9.30601 1.46051 9.51924 1.62927 9.6135 3.12466 10.4488 5.33063 10.85 7.49996 10.85z"
    fill="currentColor"
  ></path>
</symbol>
<symbol viewBox="0 0 15 15" fill="none" id="heading">
  <path     fill-rule="evenodd"
    clip-rule="evenodd"
    d="M8.75432 2.0502C8.50579 2.0502 8.30432 2.25167 8.30432 2.5002C8.30432 2.74873 8.50579 2.9502 8.75432 2.9502H9.94997V7.05004H5.04997V2.9502H6.25432C6.50285 2.9502 6.70432 2.74873 6.70432 2.5002C6.70432 2.25167 6.50285 2.0502 6.25432 2.0502H2.75432C2.50579 2.0502 2.30432 2.25167 2.30432 2.5002C2.30432 2.74873 2.50579 2.9502 2.75432 2.9502H3.94997V12.0502H2.75432C2.50579 12.0502 2.30432 12.2517 2.30432 12.5002C2.30432 12.7487 2.50579 12.9502 2.75432 12.9502H6.25432C6.50285 12.9502 6.70432 12.7487 6.70432 12.5002C6.70432 12.2517 6.50285 12.0502 6.25432 12.0502H5.04997V7.95004H9.94997V12.0502H8.75432C8.50579 12.0502 8.30432 12.2517 8.30432 12.5002C8.30432 12.7487 8.50579 12.9502 8.75432 12.9502H12.2543C12.5028 12.9502 12.7043 12.7487 12.7043 12.5002C12.7043 12.2517 12.5028 12.0502 12.2543 12.0502H11.05V2.9502H12.2543C12.5028 2.9502 12.7043 2.74873 12.7043 2.5002C12.7043 2.25167 12.5028 2.0502 12.2543 2.0502H8.75432Z"
    fill="currentColor"
  ></path>
</symbol>
<symbol viewBox="0 0 15 15" fill="none" id="list-bullet">
  <path     fill-rule="evenodd"
    clip-rule="evenodd"
    d="M1.5 5.25C1.91421 5.25 2.25 4.91421 2.25 4.5C2.25 4.08579 1.91421 3.75 1.5 3.75C1.08579 3.75 0.75 4.08579 0.75 4.5C0.75 4.91421 1.08579 5.25 1.5 5.25ZM4 4.5C4 4.22386 4.22386 4 4.5 4H13.5C13.7761 4 14 4.22386 14 4.5C14 4.77614 13.7761 5 13.5 5H4.5C4.22386 5 4 4.77614 4 4.5ZM4.5 7C4.22386 7 4 7.22386 4 7.5C4 7.77614 4.22386 8 4.5 8H13.5C13.7761 8 14 7.77614 14 7.5C14 7.22386 13.7761 7 13.5 7H4.5ZM4.5 10C4.22386 10 4 10.2239 4 10.5C4 10.7761 4.22386 11 4.5 11H13.5C13.7761 11 14 10.7761 14 10.5C14 10.2239 13.7761 10 13.5 10H4.5ZM2.25 7.5C2.25 7.91421 1.91421 8.25 1.5 8.25C1.08579 8.25 0.75 7.91421 0.75 7.5C0.75 7.08579 1.08579 6.75 1.5 6.75C1.91421 6.75 2.25 7.08579 2.25 7.5ZM1.5 11.25C1.91421 11.25 2.25 10.9142 2.25 10.5C2.25 10.0858 1.91421 9.75 1.5 9.75C1.08579 9.75 0.75 10.0858 0.75 10.5C0.75 10.9142 1.08579 11.25 1.5 11.25Z"
    fill="currentColor"
  ></path>
</symbol>
<symbol viewBox="0 0 15 15" fill="none" id="magnifying-glass">
  <path     fill-rule="evenodd"
    clip-rule="evenodd"
    d="M10 6.5C10 8.433 8.433 10 6.5 10C4.567 10 3 8.433 3 6.5C3 4.567 4.567 3 6.5 3C8.433 3 10 4.567 10 6.5ZM9.30884 10.0159C8.53901 10.6318 7.56251 11 6.5 11C4.01472 11 2 8.98528 2 6.5C2 4.01472 4.01472 2 6.5 2C8.98528 2 11 4.01472 11 6.5C11 7.56251 10.6318 8.53901 10.0159 9.30884L12.8536 12.1464C13.0488 12.3417 13.0488 12.6583 12.8536 12.8536C12.6583 13.0488 12.3417 13.0488 12.1464 12.8536L9.30884 10.0159Z"
    fill="currentColor"
  ></path>
</symbol>
<symbol viewBox="0 0 15 15" fill="none" id="paper-plane">
  <path     fill-rule="evenodd"
    clip-rule="evenodd"
    d="M1.20308 1.04312C1.00481 0.954998 0.772341 1.0048 0.627577 1.16641C0.482813 1.32802 0.458794 1.56455 0.568117 1.75196L3.92115 7.50002L0.568117 13.2481C0.458794 13.4355 0.482813 13.672 0.627577 13.8336C0.772341 13.9952 1.00481 14.045 1.20308 13.9569L14.7031 7.95693C14.8836 7.87668 15 7.69762 15 7.50002C15 7.30243 14.8836 7.12337 14.7031 7.04312L1.20308 1.04312ZM4.84553 7.10002L2.21234 2.586L13.2689 7.50002L2.21234 12.414L4.84552 7.90002H9C9.22092 7.90002 9.4 7.72094 9.4 7.50002C9.4 7.27911 9.22092 7.10002 9 7.10002H4.84553Z"
    fill="currentColor"
  ></path>
</symbol>
<symbol viewBox="0 0 15 15" fill="none" id="person">
  <path     fill-rule="evenodd"
    clip-rule="evenodd"
    d="M7.5 0.875C5.49797 0.875 3.875 2.49797 3.875 4.5C3.875 6.15288 4.98124 7.54738 6.49373 7.98351C5.2997 8.12901 4.27557 8.55134 3.50407 9.31167C2.52216 10.2794 2.02502 11.72 2.02502 13.5999C2.02502 13.8623 2.23769 14.0749 2.50002 14.0749C2.76236 14.0749 2.97502 13.8623 2.97502 13.5999C2.97502 11.8799 3.42786 10.7206 4.17091 9.9883C4.91536 9.25463 6.02674 8.87499 7.49995 8.87499C8.97317 8.87499 10.0846 9.25463 10.8291 9.98831C11.5721 10.7206 12.025 11.8799 12.025 13.5999C12.025 13.8623 12.2376 14.0749 12.5 14.0749C12.7623 14.075 12.975 13.8623 12.975 13.6C12.975 11.72 12.4778 10.2794 11.4959 9.31166C10.7244 8.55135 9.70025 8.12903 8.50625 7.98352C10.0187 7.5474 11.125 6.15289 11.125 4.5C11.125 2.49797 9.50203 0.875 7.5 0.875ZM4.825 4.5C4.825 3.02264 6.02264 1.825 7.5 1.825C8.97736 1.825 10.175 3.02264 10.175 4.5C10.175 5.97736 8.97736 7.175 7.5 7.175C6.02264 7.175 4.825 5.97736 4.825 4.5Z"
    fill="currentColor"
  ></path>
</symbol>
<symbol viewBox="0 0 15 15" fill="none" id="plus">
  <path     fill-rule="evenodd"
    clip-rule="evenodd"
    d="M8 2.75C8 2.47386 7.77614 2.25 7.5 2.25C7.22386 2.25 7 2.47386 7 2.75V7H2.75C2.47386 7 2.25 7.22386 2.25 7.5C2.25 7.77614 2.47386 8 2.75 8H7V12.25C7 12.5261 7.22386 12.75 7.5 12.75C7.77614 12.75 8 12.5261 8 12.25V8H12.25C12.5261 8 12.75 7.77614 12.75 7.5C12.75 7.22386 12.5261 7 12.25 7H8V2.75Z"
    fill="currentColor"
  ></path>
</symbol>
<symbol viewBox="0 0 15 15" fill="none" id="quote">
  <path     fill-rule="evenodd"
    clip-rule="evenodd"
    d="M9.42503 3.44136C10.0561 3.23654 10.7837 3.2402 11.3792 3.54623C12.7532 4.25224 13.3477 6.07191 12.7946 8C12.5465 8.8649 12.1102 9.70472 11.1861 10.5524C10.262 11.4 8.98034 11.9 8.38571 11.9C8.17269 11.9 8 11.7321 8 11.525C8 11.3179 8.17644 11.15 8.38571 11.15C9.06497 11.15 9.67189 10.7804 10.3906 10.236C10.9406 9.8193 11.3701 9.28633 11.608 8.82191C12.0628 7.93367 12.0782 6.68174 11.3433 6.34901C10.9904 6.73455 10.5295 6.95946 9.97725 6.95946C8.7773 6.95946 8.0701 5.99412 8.10051 5.12009C8.12957 4.28474 8.66032 3.68954 9.42503 3.44136ZM3.42503 3.44136C4.05614 3.23654 4.78366 3.2402 5.37923 3.54623C6.7532 4.25224 7.34766 6.07191 6.79462 8C6.54654 8.8649 6.11019 9.70472 5.1861 10.5524C4.26201 11.4 2.98034 11.9 2.38571 11.9C2.17269 11.9 2 11.7321 2 11.525C2 11.3179 2.17644 11.15 2.38571 11.15C3.06497 11.15 3.67189 10.7804 4.39058 10.236C4.94065 9.8193 5.37014 9.28633 5.60797 8.82191C6.06282 7.93367 6.07821 6.68174 5.3433 6.34901C4.99037 6.73455 4.52948 6.95946 3.97725 6.95946C2.7773 6.95946 2.0701 5.99412 2.10051 5.12009C2.12957 4.28474 2.66032 3.68954 3.42503 3.44136Z"
    fill="currentColor"
  ></path>
</symbol>
<symbol viewBox="0 0 15 15" fill="none" id="reader">
  <path     fill-rule="evenodd"
    clip-rule="evenodd"
    d="M4.2 1H4.17741H4.1774C3.86936 0.999988 3.60368 0.999978 3.38609 1.02067C3.15576 1.04257 2.92825 1.09113 2.71625 1.22104C2.51442 1.34472 2.34473 1.51442 2.22104 1.71625C2.09113 1.92825 2.04257 2.15576 2.02067 2.38609C1.99998 2.60367 1.99999 2.86935 2 3.17738V3.1774V3.2V11.8V11.8226V11.8226C1.99999 12.1307 1.99998 12.3963 2.02067 12.6139C2.04257 12.8442 2.09113 13.0717 2.22104 13.2837C2.34473 13.4856 2.51442 13.6553 2.71625 13.779C2.92825 13.9089 3.15576 13.9574 3.38609 13.9793C3.60368 14 3.86937 14 4.17741 14H4.2H10.8H10.8226C11.1306 14 11.3963 14 11.6139 13.9793C11.8442 13.9574 12.0717 13.9089 12.2837 13.779C12.4856 13.6553 12.6553 13.4856 12.779 13.2837C12.9089 13.0717 12.9574 12.8442 12.9793 12.6139C13 12.3963 13 12.1306 13 11.8226V11.8V3.2V3.17741C13 2.86936 13 2.60368 12.9793 2.38609C12.9574 2.15576 12.9089 1.92825 12.779 1.71625C12.6553 1.51442 12.4856 1.34472 12.2837 1.22104C12.0717 1.09113 11.8442 1.04257 11.6139 1.02067C11.3963 0.999978 11.1306 0.999988 10.8226 1H10.8H4.2ZM3.23875 2.07368C3.26722 2.05623 3.32362 2.03112 3.48075 2.01618C3.64532 2.00053 3.86298 2 4.2 2H10.8C11.137 2 11.3547 2.00053 11.5193 2.01618C11.6764 2.03112 11.7328 2.05623 11.7613 2.07368C11.8285 2.11491 11.8851 2.17147 11.9263 2.23875C11.9438 2.26722 11.9689 2.32362 11.9838 2.48075C11.9995 2.64532 12 2.86298 12 3.2V11.8C12 12.137 11.9995 12.3547 11.9838 12.5193C11.9689 12.6764 11.9438 12.7328 11.9263 12.7613C11.8851 12.8285 11.8285 12.8851 11.7613 12.9263C11.7328 12.9438 11.6764 12.9689 11.5193 12.9838C11.3547 12.9995 11.137 13 10.8 13H4.2C3.86298 13 3.64532 12.9995 3.48075 12.9838C3.32362 12.9689 3.26722 12.9438 3.23875 12.9263C3.17147 12.8851 3.11491 12.8285 3.07368 12.7613C3.05624 12.7328 3.03112 12.6764 3.01618 12.5193C3.00053 12.3547 3 12.137 3 11.8V3.2C3 2.86298 3.00053 2.64532 3.01618 2.48075C3.03112 2.32362 3.05624 2.26722 3.07368 2.23875C3.11491 2.17147 3.17147 2.11491 3.23875 2.07368ZM5 10C4.72386 10 4.5 10.2239 4.5 10.5C4.5 10.7761 4.72386 11 5 11H8C8.27614 11 8.5 10.7761 8.5 10.5C8.5 10.2239 8.27614 10 8 10H5ZM4.5 7.5C4.5 7.22386 4.72386 7 5 7H10C10.2761 7 10.5 7.22386 10.5 7.5C10.5 7.77614 10.2761 8 10 8H5C4.72386 8 4.5 7.77614 4.5 7.5ZM5 4C4.72386 4 4.5 4.22386 4.5 4.5C4.5 4.77614 4.72386 5 5 5H10C10.2761 5 10.5 4.77614 10.5 4.5C10.5 4.22386 10.2761 4 10 4H5Z"
    fill="currentColor"
  ></path>
</symbol>
<symbol viewBox="0 0 15 15" fill="none" id="strikethrough">
  <path     fill-rule="evenodd"
    clip-rule="evenodd"
    d="M5.00003 3.25C5.00003 2.97386 4.77617 2.75 4.50003 2.75C4.22389 2.75 4.00003 2.97386 4.00003 3.25V7.10003H2.49998C2.27906 7.10003 2.09998 7.27912 2.09998 7.50003C2.09998 7.72094 2.27906 7.90003 2.49998 7.90003H4.00003V8.55C4.00003 10.483 5.56703 12.05 7.50003 12.05C9.43303 12.05 11 10.483 11 8.55V7.90003H12.5C12.7209 7.90003 12.9 7.72094 12.9 7.50003C12.9 7.27912 12.7209 7.10003 12.5 7.10003H11V3.25C11 2.97386 10.7762 2.75 10.5 2.75C10.2239 2.75 10 2.97386 10 3.25V7.10003H5.00003V3.25ZM5.00003 7.90003V8.55C5.00003 9.93071 6.11932 11.05 7.50003 11.05C8.88074 11.05 10 9.93071 10 8.55V7.90003H5.00003Z"
    fill="currentColor"
  ></path>
</symbol>
<symbol viewBox="0 0 15 15" fill="none" id="underline">
  <path     fill-rule="evenodd"
    clip-rule="evenodd"
    d="M5.00001 2.75C5.00001 2.47386 4.77615 2.25 4.50001 2.25C4.22387 2.25 4.00001 2.47386 4.00001 2.75V8.05C4.00001 9.983 5.56702 11.55 7.50001 11.55C9.43301 11.55 11 9.983 11 8.05V2.75C11 2.47386 10.7762 2.25 10.5 2.25C10.2239 2.25 10 2.47386 10 2.75V8.05C10 9.43071 8.88072 10.55 7.50001 10.55C6.1193 10.55 5.00001 9.43071 5.00001 8.05V2.75ZM3.49998 13.1001C3.27906 13.1001 3.09998 13.2791 3.09998 13.5001C3.09998 13.721 3.27906 13.9001 3.49998 13.9001H11.5C11.7209 13.9001 11.9 13.721 11.9 13.5001C11.9 13.2791 11.7209 13.1001 11.5 13.1001H3.49998Z"
    fill="currentColor"
  ></path>
</symbol>
<symbol viewBox="0 0 15 15" fill="none" id="width">
  <path     fill-rule="evenodd"
    clip-rule="evenodd"
    d="M4.81812 4.68161C4.99386 4.85734 4.99386 5.14227 4.81812 5.318L3.08632 7.0498H11.9135L10.1817 5.318C10.006 5.14227 10.006 4.85734 10.1817 4.68161C10.3575 4.50587 10.6424 4.50587 10.8181 4.68161L13.3181 7.18161C13.4939 7.35734 13.4939 7.64227 13.3181 7.818L10.8181 10.318C10.6424 10.4937 10.3575 10.4937 10.1817 10.318C10.006 10.1423 10.006 9.85734 10.1817 9.68161L11.9135 7.9498H3.08632L4.81812 9.68161C4.99386 9.85734 4.99386 10.1423 4.81812 10.318C4.64239 10.4937 4.35746 10.4937 4.18173 10.318L1.68173 7.818C1.50599 7.64227 1.50599 7.35734 1.68173 7.18161L4.18173 4.68161C4.35746 4.50587 4.64239 4.50587 4.81812 4.68161Z"
    fill="currentColor"
  ></path>
</symbol>
</defs>
</svg>
